/* XPM */
static char * gxkb_xpm[] = {
"32 32 310 2",
"  	c None",
". 	c #949494",
"+ 	c #808080",
"@ 	c #ACACAC",
"# 	c #A4A4A4",
"$ 	c #8C8C8C",
"% 	c #747474",
"& 	c #A1A1A1",
"* 	c #585858",
"= 	c #999999",
"- 	c #717171",
"; 	c #616161",
"> 	c #A8A8A8",
", 	c #ADADAD",
"' 	c #606060",
") 	c #B0B0B0",
"! 	c #7C7C7C",
"~ 	c #909090",
"{ 	c #A9A9A9",
"] 	c #D4D4D4",
"^ 	c #989898",
"/ 	c #F9F9F9",
"( 	c #E0E0E0",
"_ 	c #CCCCCC",
": 	c #D0D0D0",
"< 	c #E8E8E8",
"[ 	c #FDFDFD",
"} 	c #555555",
"| 	c #D1D1D1",
"1 	c #F4F4F4",
"2 	c #919191",
"3 	c #B4B4B4",
"4 	c #ECECEC",
"5 	c #5C5C5C",
"6 	c #F0F0F0",
"7 	c #9D9D9D",
"8 	c #E4E4E4",
"9 	c #3C3C3C",
"0 	c #C8C8C8",
"a 	c #848484",
"b 	c #D8D8D8",
"c 	c #BFBFBF",
"d 	c #E1E1E1",
"e 	c #DCDCDC",
"f 	c #505050",
"g 	c #DDDDDD",
"h 	c #F5F5F5",
"i 	c #4C4C4C",
"j 	c #F1F1F1",
"k 	c #545454",
"l 	c #B8B8B8",
"m 	c #C5C5C5",
"n 	c #343434",
"o 	c #C4C4C4",
"p 	c #656565",
"q 	c #9C9C9C",
"r 	c #E5E5E5",
"s 	c #444444",
"t 	c #646464",
"u 	c #404040",
"v 	c #515151",
"w 	c #686868",
"x 	c #707070",
"y 	c #888888",
"z 	c #B9B9B9",
"A 	c #787878",
"B 	c #C9C9C9",
"C 	c #C0C0C0",
"D 	c #5D5D5D",
"E 	c #6C6C6C",
"F 	c #EBEBEB",
"G 	c #A0A0A0",
"H 	c #AFAFAF",
"I 	c #E9E9E9",
"J 	c #BCBCBC",
"K 	c #EFEFEF",
"L 	c #D5D5D5",
"M 	c #D9D9D9",
"N 	c #757575",
"O 	c #C1C1C1",
"P 	c #494949",
"Q 	c #202020",
"R 	c #696969",
"S 	c #414141",
"T 	c #292929",
"U 	c #EDEDED",
"V 	c #484848",
"W 	c #7D7D7D",
"X 	c #DFDFDF",
"Y 	c #A5A5A5",
"Z 	c #B5B5B5",
"` 	c #959595",
" .	c #282828",
"..	c #080808",
"+.	c #393939",
"@.	c #797979",
"#.	c #898989",
"$.	c #CDCDCD",
"%.	c #BDBDBD",
"&.	c #010304",
"*.	c #0A131E",
"=.	c #08111D",
"-.	c #09121E",
";.	c #0F161F",
">.	c #131A21",
",.	c #171B22",
"'.	c #10171E",
").	c #0B121B",
"!.	c #09111B",
"~.	c #09111D",
"{.	c #0C141F",
"].	c #111820",
"^.	c #151A22",
"/.	c #181D25",
"(.	c #030405",
"_.	c #0B131E",
":.	c #558FE9",
"<.	c #4E89E6",
"[.	c #528CE8",
"}.	c #6A9EF0",
"|.	c #80ADF6",
"1.	c #8DB5F9",
"2.	c #90B5F9",
"3.	c #6F9DE9",
"4.	c #568BDF",
"5.	c #4E86E1",
"6.	c #508CE9",
"7.	c #5E96ED",
"8.	c #74A5F2",
"9.	c #85B0F6",
"0.	c #96BFFF",
"a.	c #181D23",
"b.	c #2D2D2D",
"c.	c #383838",
"d.	c #2B2B2B",
"e.	c #303030",
"f.	c #0A111B",
"g.	c #5188E0",
"h.	c #4B83DD",
"i.	c #6898E6",
"j.	c #79A3EB",
"k.	c #85ABED",
"l.	c #83A9EC",
"m.	c #6593DF",
"n.	c #5084D7",
"o.	c #4B82D8",
"p.	c #4C84DE",
"q.	c #4E86DF",
"r.	c #5C90E4",
"s.	c #6F9DE8",
"t.	c #7DA6EB",
"u.	c #8BB1F5",
"v.	c #151A20",
"w.	c #1C1C1C",
"x.	c #5088E1",
"y.	c #538AE1",
"z.	c #6A9AE7",
"A.	c #7BA5EB",
"B.	c #86ACEE",
"C.	c #80A7EB",
"D.	c #6190DD",
"E.	c #4F83D6",
"F.	c #4B82D9",
"G.	c #4F86E0",
"H.	c #5F92E4",
"I.	c #719EE9",
"J.	c #7FA8EC",
"K.	c #89AFF2",
"L.	c #14191F",
"M.	c #858585",
"N.	c #151515",
"O.	c #4F88E1",
"P.	c #4B84DD",
"Q.	c #558BE1",
"R.	c #6D9CE8",
"S.	c #7DA7EB",
"T.	c #87ACEE",
"U.	c #7DA5E9",
"V.	c #5E8EDB",
"W.	c #4E82D7",
"X.	c #4B82DA",
"Y.	c #5088E0",
"Z.	c #6294E5",
"`.	c #73A0E9",
" +	c #81A8EC",
".+	c #86ADF1",
"++	c #13181E",
"@+	c #1D1D1D",
"#+	c #070F1D",
"$+	c #4883EA",
"%+	c #467FE5",
"&+	c #5189E8",
"*+	c #689AEE",
"=+	c #79A3F0",
"-+	c #81A9F2",
";+	c #749FEC",
">+	c #5588E0",
",+	c #487EDD",
"'+	c #467EE2",
")+	c #4680E6",
"!+	c #4B84E7",
"~+	c #5D92EB",
"{+	c #6E9DEE",
"]+	c #7BA6F1",
"^+	c #7CA8F4",
"/+	c #11161F",
"(+	c #252001",
"_+	c #FFF506",
":+	c #FFEF04",
"<+	c #FFF120",
"[+	c #FFF546",
"}+	c #FFF65A",
"|+	c #FFF765",
"1+	c #FCF04F",
"2+	c #F4E623",
"3+	c #F6E509",
"4+	c #FEEC04",
"5+	c #FFF003",
"6+	c #FFF111",
"7+	c #FFF434",
"8+	c #FFF64E",
"9+	c #FFF75F",
"0+	c #FFF759",
"a+	c #23200D",
"b+	c #231F03",
"c+	c #FAEB10",
"d+	c #FBEE30",
"e+	c #FCF251",
"f+	c #FDF463",
"g+	c #FCF468",
"h+	c #F5EB50",
"i+	c #EEE328",
"j+	c #EFE214",
"k+	c #F6E80E",
"l+	c #FAEB0E",
"m+	c #FCEE21",
"n+	c #FCF040",
"o+	c #FDF357",
"p+	c #FBF364",
"q+	c #FCF259",
"r+	c #221F0D",
"s+	c #FFF110",
"t+	c #FAEB12",
"u+	c #FCEF36",
"v+	c #FDF254",
"w+	c #FDF464",
"x+	c #FBF264",
"y+	c #F4EA4A",
"z+	c #EEE325",
"A+	c #F0E312",
"B+	c #F8E90E",
"C+	c #FBEB0F",
"D+	c #FCEE24",
"E+	c #FCF144",
"F+	c #FDF359",
"G+	c #FAF162",
"H+	c #FCF254",
"I+	c #241F03",
"J+	c #FFF210",
"K+	c #FAEB14",
"L+	c #FCF03A",
"M+	c #FDF256",
"N+	c #FDF465",
"O+	c #FBF263",
"P+	c #F2E945",
"Q+	c #EEE223",
"R+	c #F0E411",
"S+	c #F8E90D",
"T+	c #FCEB10",
"U+	c #FCEE28",
"V+	c #FCF147",
"W+	c #FCF35B",
"X+	c #F8F05F",
"Y+	c #FAF04F",
"Z+	c #221F0B",
"`+	c #272303",
" @	c #FFFF11",
".@	c #FFF71B",
"+@	c #FFFD47",
"@@	c #FFFF63",
"#@	c #FFFF71",
"$@	c #FFFD67",
"%@	c #FEF242",
"&@	c #F9EC22",
"*@	c #FEEE12",
"=@	c #FFF50F",
"-@	c #FFF814",
";@	c #FFFB35",
">@	c #FFFE57",
",@	c #FFFF67",
"'@	c #FFFA67",
")@	c #FFFA50",
"!@	c #25210B",
"~@	c #050500",
"{@	c #272403",
"]@	c #252205",
"^@	c #25230E",
"/@	c #252412",
"(@	c #252414",
"_@	c #252311",
":@	c #23200B",
"<@	c #221F06",
"[@	c #252102",
"}@	c #252204",
"|@	c #25230A",
"1@	c #252310",
"2@	c #252312",
"3@	c #242212",
"4@	c #25220D",
"5@	c #050401",
"                                                                ",
"                                                                ",
"                                                                ",
"                                                                ",
"                                                                ",
". + @ # $ % & # @ * = @ # - $ @ @ @ ; > @ , ' = ) @ ! ~ @ { @ * ",
"] ^ / ( _ ^ : < [ } | 1 1 2 3 4 ( / * [ ( [ 5 4 6 1 7 3 8 8 [ 9 ",
"0 a 1 b c ~ d e / f | < < a @ g b h i j e / k l < 4 . 3 m > [ n ",
"] # 6 e o . g ( / 5 b < 6 $ l < ( h 5 1 ( h p ] 4 4 q l r 0 [ s ",
"! t * t ! % . u $ ' . v ! w a x k y t . 9 $ p . s % w ! + k 2 ' ",
"z # A # m < [ t B 0 [ + > 8 1 C # 7 4 [ D | 6 [ E o | < F G H I ",
"J . E G K b / k [ e h % L < ( 3 ^ / b / k [ e h D 0 1 b M . [ ] ",
"( 3 N # [ < [ 5 [ 6 [ + ( / 6 m ^ [ < [ ' [ 1 [ x : [ < r ^ [ O ",
"i P Q A % R ! u % E % S ! - E f w % E ! f A w % T + A % E x % E ",
"G : l G ~ U 4 [ V d 4 / a 3 8 4 < % b 6 [ i 4 4 / @ > 8 4 r A / ",
"a ^ q q a _ b [ u 4 _ 6 W 3 M b X E j b / s 8 o 4 Y # 8 b g E ( ",
"y # G G a [ b [ 9 [ ( 6 W 0 1 b ( t [ b / S [ r 6 Y Z / e ( E [ ",
"$ # q y . 6 ] 6 i 4 e 8 % C < : : % 4 ] 6 s < ( e q J 4 ] o E 4 ",
"k E w t 5 5 Q ` y #  .a a y p 5 . $ 3 ..= a . +.@.#.$ i k & . 3 ",
"q C 3 ) ) l i b 4 [ E _ ] 6 $.# O 8 [ 9 b 4 [ a l o 1 Y . %.8 [ ",
"a @ $ ^ # > 9 [ e h 5 < U ( &.*.=.-.;.>.,.,.'.).!.~.-.{.].^./.(.",
"q o l l ) 3 k [ 4 [ E 4 1 4 _.:.<.[.}.|.1.2.3.4.5.<.6.7.8.9.0.a.",
"9 s s f b.s c.% d.5 e.x v E f.g.h.g.i.j.k.l.m.n.o.p.q.r.s.t.u.v.",
"# _ l > E e l b w.8 J C p _ f.x.h.y.z.A.B.C.D.E.F.p.G.H.I.J.K.L.",
"M.= > ^ * J G 0 N.C q 3 5 o !.O.P.Q.R.S.T.U.V.W.X.p.Y.Z.`. +.+++",
"^ C H G ' : ) : @+( l C w o #+$+%+&+*+=+-+;+>+,+'+)+!+~+{+]+^+/+",
"% ! ! - E a ! a v ! ! ! t 2 (+_+:+<+[+}+|+1+2+3+4+5+6+7+8+9+0+a+",
"                            b+6+c+d+e+f+g+h+i+j+k+l+m+n+o+p+q+r+",
"                            b+s+t+u+v+w+x+y+z+A+B+C+D+E+F+G+H+r+",
"                            I+J+K+L+M+N+O+P+Q+R+S+T+U+V+W+X+Y+Z+",
"                            `+ @.@+@@@#@$@%@&@*@=@-@;@>@,@'@)@!@",
"                            ~@{@]@^@/@(@_@:@<@b+[@}@|@1@2@3@4@5@"};
